<?xml version="1.0" encoding="UTF-8" standalone="no"?>
<!-- Created with matplotlib (https://matplotlib.org/) -->

<svg
   xmlns:dc="http://purl.org/dc/elements/1.1/"
   xmlns:cc="http://creativecommons.org/ns#"
   xmlns:rdf="http://www.w3.org/1999/02/22-rdf-syntax-ns#"
   xmlns:svg="http://www.w3.org/2000/svg"
   xmlns="http://www.w3.org/2000/svg"
   xmlns:xlink="http://www.w3.org/1999/xlink"
   xmlns:sodipodi="http://sodipodi.sourceforge.net/DTD/sodipodi-0.dtd"
   xmlns:inkscape="http://www.inkscape.org/namespaces/inkscape"
   height="345.6pt"
   version="1.1"
   viewBox="0 0 460.8 345.6"
   width="460.8pt"
   id="svg1039"
   sodipodi:docname="human_vs_machine_accuracy.svg"
   inkscape:version="0.92.4 (f8dce91, 2019-08-02)">
  <metadata
     id="metadata1043">
    <rdf:RDF>
      <cc:Work
         rdf:about="">
        <dc:format>image/svg+xml</dc:format>
        <dc:type
           rdf:resource="http://purl.org/dc/dcmitype/StillImage" />
      </cc:Work>
    </rdf:RDF>
  </metadata>
  <sodipodi:namedview
     pagecolor="#ffffff"
     bordercolor="#666666"
     borderopacity="1"
     objecttolerance="10"
     gridtolerance="10"
     guidetolerance="10"
     inkscape:pageopacity="0"
     inkscape:pageshadow="2"
     inkscape:window-width="1600"
     inkscape:window-height="845"
     id="namedview1041"
     showgrid="false"
     inkscape:zoom="1.4409722"
     inkscape:cx="194.7759"
     inkscape:cy="230.40001"
     inkscape:window-x="0"
     inkscape:window-y="27"
     inkscape:window-maximized="1"
     inkscape:current-layer="svg1039" />
  <defs
     id="defs789">
    <style
       type="text/css"
       id="style787">
*{stroke-linecap:butt;stroke-linejoin:round;}
  </style>
    <defs
       id="defs982">
      <path
         d="M 19.671875,64.796875 V 37.40625 h 12.40625 q 6.890625,0 10.640625,3.5625 3.765625,3.5625 3.765625,10.15625 0,6.546875 -3.765625,10.109375 -3.75,3.5625 -10.640625,3.5625 z M 9.8125,72.90625 h 22.265625 q 12.265625,0 18.53125,-5.546875 6.28125,-5.546875 6.28125,-16.234375 0,-10.796875 -6.28125,-16.3125 -6.265625,-5.515625 -18.53125,-5.515625 H 19.671875 V 0 H 9.8125 Z"
         id="DejaVuSans-80"
         inkscape:connector-curvature="0"
         style="stroke-linecap:butt;stroke-linejoin:round" />
      <path
         d="m 41.109375,46.296875 q -1.515625,0.875 -3.296875,1.28125 Q 36.03125,48 33.890625,48 26.265625,48 22.1875,43.046875 18.109375,38.09375 18.109375,28.8125 V 0 h -9.03125 v 54.6875 h 9.03125 v -8.5 q 2.84375,4.984375 7.375,7.390625 Q 30.03125,56 36.53125,56 q 0.921875,0 2.046875,-0.125 1.125,-0.109375 2.484375,-0.359375 z"
         id="DejaVuSans-114"
         inkscape:connector-curvature="0"
         style="stroke-linecap:butt;stroke-linejoin:round" />
      <path
         d="M 18.3125,70.21875 V 54.6875 h 18.5 v -6.984375 h -18.5 v -29.6875 q 0,-6.6875 1.828125,-8.59375 1.828125,-1.90625 7.453125,-1.90625 H 36.8125 V 0 H 27.59375 Q 17.1875,0 13.234375,3.875 9.28125,7.765625 9.28125,18.015625 v 29.6875 H 2.6875 V 54.6875 h 6.59375 v 15.53125 z"
         id="DejaVuSans-116"
         inkscape:connector-curvature="0"
         style="stroke-linecap:butt;stroke-linejoin:round" />
      <path
         id="DejaVuSans-32"
         d=""
         inkscape:connector-curvature="0"
         style="stroke-linecap:butt;stroke-linejoin:round" />
      <path
         d="M 34.1875,63.1875 20.796875,26.90625 h 26.8125 z m -5.578125,9.71875 h 11.1875 L 67.578125,0 h -10.25 L 50.6875,18.703125 H 17.828125 L 11.1875,0 H 0.78125 Z"
         id="DejaVuSans-65"
         inkscape:connector-curvature="0"
         style="stroke-linecap:butt;stroke-linejoin:round" />
      <path
         d="M 32.171875,-5.078125 Q 28.375,-14.84375 24.75,-17.8125 q -3.609375,-2.984375 -9.65625,-2.984375 h -7.1875 v 7.515625 h 5.28125 q 3.703125,0 5.75,1.765625 2.0625,1.75 4.546875,8.296875 L 25.09375,0.875 2.984375,54.6875 H 12.5 L 29.59375,11.921875 46.6875,54.6875 h 9.515625 z"
         id="DejaVuSans-121"
         inkscape:connector-curvature="0"
         style="stroke-linecap:butt;stroke-linejoin:round" />
    </defs>
    <defs
       id="defs872">
      <path
         style="stroke-linecap:butt;stroke-linejoin:round"
         inkscape:connector-curvature="0"
         id="DejaVuSans-48"
         d="m 31.78125,66.40625 q -7.609375,0 -11.453125,-7.5 Q 16.5,51.421875 16.5,36.375 q 0,-14.984375 3.828125,-22.484375 3.84375,-7.5 11.453125,-7.5 7.671875,0 11.5,7.5 3.84375,7.5 3.84375,22.484375 0,15.046875 -3.84375,22.53125 -3.828125,7.5 -11.5,7.5 z m 0,7.8125 q 12.265625,0 18.734375,-9.703125 6.46875,-9.6875 6.46875,-28.140625 0,-18.40625 -6.46875,-28.109375 -6.46875,-9.6875 -18.734375,-9.6875 -12.25,0 -18.71875,9.6875 Q 6.59375,17.96875 6.59375,36.375 q 0,18.453125 6.46875,28.140625 6.46875,9.703125 18.71875,9.703125 z" />
    </defs>
    <defs
       id="defs864">
      <path
         inkscape:connector-curvature="0"
         style="stroke:#000000;stroke-width:0.80000001;stroke-linecap:butt;stroke-linejoin:round"
         id="me08009e48c"
         d="M 0,0 H -3.5" />
    </defs>
    <defs
       id="defs886">
      <path
         style="stroke-linecap:butt;stroke-linejoin:round"
         inkscape:connector-curvature="0"
         id="DejaVuSans-49"
         d="m 12.40625,8.296875 h 16.109375 v 55.625 L 10.984375,60.40625 v 8.984375 l 17.4375,3.515625 H 38.28125 V 8.296875 H 54.390625 V 0 H 12.40625 Z" />
    </defs>
    <defs
       id="defs902">
      <path
         style="stroke-linecap:butt;stroke-linejoin:round"
         inkscape:connector-curvature="0"
         id="DejaVuSans-50"
         d="M 19.1875,8.296875 H 53.609375 V 0 H 7.328125 v 8.296875 q 5.609375,5.8125 15.296875,15.59375 9.703125,9.796875 12.1875,12.640625 4.734375,5.3125 6.609375,9 1.890625,3.6875 1.890625,7.25 0,5.8125 -4.078125,9.46875 -4.078125,3.671875 -10.625,3.671875 -4.640625,0 -9.796875,-1.609375 -5.140625,-1.609375 -11,-4.890625 v 9.96875 Q 13.765625,71.78125 18.9375,73 q 5.1875,1.21875 9.484375,1.21875 11.328125,0 18.0625,-5.671875 6.734375,-5.65625 6.734375,-15.125 0,-4.5 -1.6875,-8.53125 Q 49.859375,40.875 45.40625,35.40625 44.1875,33.984375 37.640625,27.21875 31.109375,20.453125 19.1875,8.296875 Z" />
    </defs>
    <defs
       id="defs918">
      <path
         style="stroke-linecap:butt;stroke-linejoin:round"
         inkscape:connector-curvature="0"
         id="DejaVuSans-51"
         d="M 40.578125,39.3125 Q 47.65625,37.796875 51.625,33 q 3.984375,-4.78125 3.984375,-11.8125 0,-10.78125 -7.421875,-16.703125 -7.421875,-5.90625 -21.09375,-5.90625 -4.578125,0 -9.4375,0.90625 -4.859375,0.90625 -10.03125,2.71875 v 9.515625 q 4.09375,-2.390625 8.96875,-3.609375 4.890625,-1.21875 10.21875,-1.21875 9.265625,0 14.125,3.65625 4.859375,3.65625 4.859375,10.640625 0,6.453125 -4.515625,10.078125 -4.515625,3.640625 -12.5625,3.640625 h -8.5 v 8.109375 h 8.890625 q 7.265625,0 11.125,2.90625 3.859375,2.90625 3.859375,8.375 0,5.609375 -3.984375,8.609375 -3.96875,3.015625 -11.390625,3.015625 -4.0625,0 -8.703125,-0.890625 Q 15.375,64.15625 9.8125,62.3125 v 8.78125 q 5.625,1.5625 10.53125,2.34375 4.90625,0.78125 9.25,0.78125 11.234375,0 17.765625,-5.109375 6.546875,-5.09375 6.546875,-13.78125 0,-6.0625 -3.46875,-10.234375 -3.46875,-4.171875 -9.859375,-5.78125 z" />
    </defs>
    <defs
       id="defs934">
      <path
         style="stroke-linecap:butt;stroke-linejoin:round"
         inkscape:connector-curvature="0"
         id="DejaVuSans-52"
         d="M 37.796875,64.3125 12.890625,25.390625 h 24.90625 z m -2.59375,8.59375 h 12.40625 V 25.390625 h 10.40625 V 17.1875 H 47.609375 V 0 h -9.8125 V 17.1875 H 4.890625 v 9.515625 z" />
    </defs>
    <defs
       id="defs950">
      <path
         style="stroke-linecap:butt;stroke-linejoin:round"
         inkscape:connector-curvature="0"
         id="DejaVuSans-53"
         d="m 10.796875,72.90625 h 38.71875 v -8.3125 h -29.6875 V 46.734375 q 2.140625,0.734375 4.28125,1.09375 2.15625,0.359375 4.3125,0.359375 Q 40.625,48.1875 47.75,41.5 54.890625,34.8125 54.890625,23.390625 54.890625,11.625 47.5625,5.09375 40.234375,-1.421875 26.90625,-1.421875 q -4.59375,0 -9.359375,0.78125 -4.75,0.78125 -9.828125,2.34375 V 11.625 q 4.390625,-2.390625 9.078125,-3.5625 4.6875,-1.171875 9.90625,-1.171875 8.453125,0 13.375,4.4375 4.9375,4.4375 4.9375,12.0625 0,7.609375 -4.9375,12.046875 -4.921875,4.453125 -13.375,4.453125 -3.953125,0 -7.890625,-0.875 -3.921875,-0.875 -8.015625,-2.734375 z" />
    </defs>
    <defs
       id="defs966">
      <path
         style="stroke-linecap:butt;stroke-linejoin:round"
         inkscape:connector-curvature="0"
         id="DejaVuSans-54"
         d="m 33.015625,40.375 q -6.640625,0 -10.53125,-4.546875 -3.875,-4.53125 -3.875,-12.4375 0,-7.859375 3.875,-12.4375 3.890625,-4.5625 10.53125,-4.5625 6.640625,0 10.515625,4.5625 3.875,4.578125 3.875,12.4375 0,7.90625 -3.875,12.4375 Q 39.65625,40.375 33.015625,40.375 Z M 52.59375,71.296875 V 62.3125 q -3.71875,1.75 -7.5,2.671875 -3.78125,0.9375 -7.5,0.9375 -9.765625,0 -14.921875,-6.59375 -5.140625,-6.59375 -5.875,-19.921875 2.875,4.25 7.21875,6.515625 4.359375,2.265625 9.578125,2.265625 10.984375,0 17.359375,-6.671875 6.375,-6.65625 6.375,-18.125 0,-11.234375 -6.640625,-18.03125 -6.640625,-6.78125 -17.671875,-6.78125 -12.65625,0 -19.34375,9.6875 -6.6875,9.703125 -6.6875,28.109375 0,17.28125 8.203125,27.5625 8.203125,10.28125 22.015625,10.28125 3.71875,0 7.5,-0.734375 3.78125,-0.734375 7.890625,-2.1875 z" />
    </defs>
    <defs
       id="defs816">
      <path
         style="stroke-linecap:butt;stroke-linejoin:round"
         inkscape:connector-curvature="0"
         id="DejaVuSans-72"
         d="m 9.8125,72.90625 h 9.859375 V 43.015625 h 35.84375 V 72.90625 H 65.375 V 0 H 55.515625 V 34.71875 H 19.671875 V 0 H 9.8125 Z" />
      <path
         style="stroke-linecap:butt;stroke-linejoin:round"
         inkscape:connector-curvature="0"
         id="DejaVuSans-117"
         d="M 8.5,21.578125 V 54.6875 h 8.984375 V 21.921875 q 0,-7.765625 3.015625,-11.65625 3.03125,-3.875 9.09375,-3.875 7.265625,0 11.484375,4.640625 4.234375,4.640625 4.234375,12.65625 v 31 h 8.984375 V 0 H 45.3125 V 8.40625 Q 42.046875,3.421875 37.71875,1 33.40625,-1.421875 27.6875,-1.421875 18.265625,-1.421875 13.375,4.4375 8.5,10.296875 8.5,21.578125 Z M 31.109375,56 Z" />
      <path
         style="stroke-linecap:butt;stroke-linejoin:round"
         inkscape:connector-curvature="0"
         id="DejaVuSans-109"
         d="M 52,44.1875 Q 55.375,50.25 60.0625,53.125 64.75,56 71.09375,56 q 8.546875,0 13.1875,-5.984375 4.640625,-5.96875 4.640625,-17 V 0 h -9.03125 v 32.71875 q 0,7.859375 -2.796875,11.65625 -2.78125,3.8125 -8.484375,3.8125 -6.984375,0 -11.046875,-4.640625 -4.046875,-4.625 -4.046875,-12.640625 V 0 h -9.03125 v 32.71875 q 0,7.90625 -2.78125,11.6875 -2.78125,3.78125 -8.59375,3.78125 -6.890625,0 -10.953125,-4.65625 -4.046875,-4.65625 -4.046875,-12.625 V 0 h -9.03125 v 54.6875 h 9.03125 v -8.5 q 3.078125,5.03125 7.375,7.421875 Q 29.78125,56 35.6875,56 41.65625,56 45.828125,52.96875 50,49.953125 52,44.1875 Z" />
      <path
         style="stroke-linecap:butt;stroke-linejoin:round"
         inkscape:connector-curvature="0"
         id="DejaVuSans-97"
         d="m 34.28125,27.484375 q -10.890625,0 -15.09375,-2.484375 -4.203125,-2.484375 -4.203125,-8.5 0,-4.78125 3.15625,-7.59375 3.15625,-2.796875 8.5625,-2.796875 7.484375,0 12,5.296875 4.515625,5.296875 4.515625,14.078125 v 2 z m 17.921875,3.71875 V 0 H 43.21875 v 8.296875 q -3.078125,-4.96875 -7.671875,-7.34375 -4.59375,-2.375 -11.234375,-2.375 -8.390625,0 -13.359375,4.71875 Q 6,8.015625 6,15.921875 q 0,9.21875 6.171875,13.90625 6.1875,4.6875 18.4375,4.6875 H 43.21875 v 0.890625 q 0,6.203125 -4.078125,9.59375 -4.078125,3.390625 -11.453125,3.390625 -4.6875,0 -9.140625,-1.125 -4.4375,-1.125 -8.53125,-3.375 v 8.3125 q 4.921875,1.90625 9.5625,2.84375 Q 24.21875,56 28.609375,56 q 11.875,0 17.734375,-6.15625 5.859375,-6.140625 5.859375,-18.640625 z" />
      <path
         style="stroke-linecap:butt;stroke-linejoin:round"
         inkscape:connector-curvature="0"
         id="DejaVuSans-110"
         d="M 54.890625,33.015625 V 0 H 45.90625 v 32.71875 q 0,7.765625 -3.03125,11.609375 -3.03125,3.859375 -9.078125,3.859375 -7.28125,0 -11.484375,-4.640625 -4.203125,-4.625 -4.203125,-12.640625 V 0 h -9.03125 v 54.6875 h 9.03125 v -8.5 q 3.234375,4.9375 7.59375,7.375 4.375,2.4375 10.09375,2.4375 9.421875,0 14.25,-5.828125 4.84375,-5.828125 4.84375,-17.15625 z" />
    </defs>
    <defs
       id="defs804">
      <path
         inkscape:connector-curvature="0"
         style="stroke:#000000;stroke-width:0.80000001;stroke-linecap:butt;stroke-linejoin:round"
         id="m5576844cd5"
         d="M 0,0 V 3.5" />
    </defs>
    <defs
       id="defs842">
      <path
         style="stroke-linecap:butt;stroke-linejoin:round"
         inkscape:connector-curvature="0"
         id="DejaVuSans-77"
         d="M 9.8125,72.90625 H 24.515625 L 43.109375,23.296875 61.8125,72.90625 H 76.515625 V 0 h -9.625 v 64.015625 l -18.796875,-50 H 38.1875 l -18.796875,50 V 0 H 9.8125 Z" />
      <path
         style="stroke-linecap:butt;stroke-linejoin:round"
         inkscape:connector-curvature="0"
         id="DejaVuSans-99"
         d="M 48.78125,52.59375 V 44.1875 q -3.8125,2.109375 -7.640625,3.15625 -3.828125,1.046875 -7.734375,1.046875 -8.75,0 -13.59375,-5.546875 -4.828125,-5.53125 -4.828125,-15.546875 0,-10.015625 4.828125,-15.5625 4.84375,-5.53125 13.59375,-5.53125 3.90625,0 7.734375,1.046875 3.828125,1.046875 7.640625,3.15625 v -8.3125 q -3.765625,-1.75 -7.796875,-2.625 -4.015625,-0.890625 -8.5625,-0.890625 -12.359375,0 -19.640625,7.765625 -7.265625,7.765625 -7.265625,20.953125 0,13.375 7.34375,21.03125 Q 20.21875,56 33.015625,56 q 4.140625,0 8.09375,-0.859375 3.953125,-0.84375 7.671875,-2.546875 z" />
      <path
         style="stroke-linecap:butt;stroke-linejoin:round"
         inkscape:connector-curvature="0"
         id="DejaVuSans-104"
         d="M 54.890625,33.015625 V 0 H 45.90625 v 32.71875 q 0,7.765625 -3.03125,11.609375 -3.03125,3.859375 -9.078125,3.859375 -7.28125,0 -11.484375,-4.640625 -4.203125,-4.625 -4.203125,-12.640625 V 0 h -9.03125 v 75.984375 h 9.03125 V 46.1875 q 3.234375,4.9375 7.59375,7.375 4.375,2.4375 10.09375,2.4375 9.421875,0 14.25,-5.828125 4.84375,-5.828125 4.84375,-17.15625 z" />
      <path
         style="stroke-linecap:butt;stroke-linejoin:round"
         inkscape:connector-curvature="0"
         id="DejaVuSans-105"
         d="M 9.421875,54.6875 H 18.40625 V 0 H 9.421875 Z m 0,21.296875 H 18.40625 V 64.59375 H 9.421875 Z" />
      <path
         style="stroke-linecap:butt;stroke-linejoin:round"
         inkscape:connector-curvature="0"
         id="DejaVuSans-101"
         d="m 56.203125,29.59375 v -4.390625 h -41.3125 q 0.59375,-9.28125 5.59375,-14.140625 5,-4.859375 13.9375,-4.859375 5.171875,0 10.03125,1.265625 4.859375,1.265625 9.65625,3.8125 v -8.5 q -4.84375,-2.046875 -9.921875,-3.125 -5.078125,-1.078125 -10.296875,-1.078125 -13.09375,0 -20.734375,7.609375 -7.640625,7.625 -7.640625,20.625 0,13.421875 7.25,21.296875 Q 20.015625,56 32.328125,56 q 11.03125,0 17.453125,-7.109375 6.421875,-7.09375 6.421875,-19.296875 z m -8.984375,2.640625 q -0.09375,7.359375 -4.125,11.75 -4.03125,4.40625 -10.671875,4.40625 -7.515625,0 -12.03125,-4.25 -4.515625,-4.25 -5.203125,-11.96875 z" />
    </defs>
  </defs>
  <path
     inkscape:connector-curvature="0"
     id="path797"
     style="fill:#5ea3d3;stroke-linecap:butt;stroke-linejoin:round;stroke:#000000;stroke-opacity:1;stroke-width:1.53853572;stroke-miterlimit:4;stroke-dasharray:none;fill-opacity:1"
     d="M 73.832727,307.584 H 218.12364 V 182.42889 H 73.832727 Z"
     clip-path="url(#pb711ccdc9a)"
     transform="matrix(0.53467501,0,0,1,34.356214,0)" />
  <path
     inkscape:connector-curvature="0"
     id="path800"
     style="fill:#76da24;stroke:#000000;stroke-width:1.51322508;stroke-linecap:butt;stroke-linejoin:round;stroke-miterlimit:4;stroke-dasharray:none;stroke-opacity:1;fill-opacity:1"
     d="M 254.19636,307.584 H 398.48727 V 54.144 H 254.19636 Z"
     clip-path="url(#pb711ccdc9a)"
     transform="matrix(0.55271085,0,0,1,31.199275,0)" />
  <use
     xlink:href="#DejaVuSans-48"
     id="use874"
     style="stroke-linecap:butt;stroke-linejoin:round"
     x="0"
     y="0"
     width="100%"
     height="100%"
     transform="matrix(0.1,0,0,-0.1,44.2375,311.38322)" />
  <use
     xlink:href="#DejaVuSans-49"
     id="use888"
     style="stroke-linecap:butt;stroke-linejoin:round"
     x="0"
     y="0"
     width="100%"
     height="100%"
     transform="matrix(0.1,0,0,-0.1,37.875,271.15465)" />
  <use
     x="63.623047"
     xlink:href="#DejaVuSans-48"
     id="use890"
     style="stroke-linecap:butt;stroke-linejoin:round"
     y="0"
     width="100%"
     height="100%"
     transform="matrix(0.1,0,0,-0.1,37.875,271.15465)" />
  <use
     xlink:href="#DejaVuSans-50"
     id="use904"
     style="stroke-linecap:butt;stroke-linejoin:round"
     x="0"
     y="0"
     width="100%"
     height="100%"
     transform="matrix(0.1,0,0,-0.1,37.875,230.92608)" />
  <use
     x="63.623047"
     xlink:href="#DejaVuSans-48"
     id="use906"
     style="stroke-linecap:butt;stroke-linejoin:round"
     y="0"
     width="100%"
     height="100%"
     transform="matrix(0.1,0,0,-0.1,37.875,230.92608)" />
  <use
     xlink:href="#DejaVuSans-51"
     id="use920"
     style="stroke-linecap:butt;stroke-linejoin:round"
     x="0"
     y="0"
     width="100%"
     height="100%"
     transform="matrix(0.1,0,0,-0.1,37.875,190.6975)" />
  <use
     x="63.623047"
     xlink:href="#DejaVuSans-48"
     id="use922"
     style="stroke-linecap:butt;stroke-linejoin:round"
     y="0"
     width="100%"
     height="100%"
     transform="matrix(0.1,0,0,-0.1,37.875,190.6975)" />
  <use
     xlink:href="#DejaVuSans-52"
     id="use936"
     style="stroke-linecap:butt;stroke-linejoin:round"
     x="0"
     y="0"
     width="100%"
     height="100%"
     transform="matrix(0.1,0,0,-0.1,37.875,150.46893)" />
  <use
     x="63.623047"
     xlink:href="#DejaVuSans-48"
     id="use938"
     style="stroke-linecap:butt;stroke-linejoin:round"
     y="0"
     width="100%"
     height="100%"
     transform="matrix(0.1,0,0,-0.1,37.875,150.46893)" />
  <use
     xlink:href="#DejaVuSans-53"
     id="use952"
     style="stroke-linecap:butt;stroke-linejoin:round"
     x="0"
     y="0"
     width="100%"
     height="100%"
     transform="matrix(0.1,0,0,-0.1,37.875,110.24036)" />
  <use
     x="63.623047"
     xlink:href="#DejaVuSans-48"
     id="use954"
     style="stroke-linecap:butt;stroke-linejoin:round"
     y="0"
     width="100%"
     height="100%"
     transform="matrix(0.1,0,0,-0.1,37.875,110.24036)" />
  <use
     xlink:href="#DejaVuSans-54"
     id="use968"
     style="stroke-linecap:butt;stroke-linejoin:round"
     x="0"
     y="0"
     width="100%"
     height="100%"
     transform="matrix(0.1,0,0,-0.1,37.875,70.01179)" />
  <use
     x="63.623047"
     xlink:href="#DejaVuSans-48"
     id="use970"
     style="stroke-linecap:butt;stroke-linejoin:round"
     y="0"
     width="100%"
     height="100%"
     transform="matrix(0.1,0,0,-0.1,37.875,70.01179)" />
  <use
     height="100%"
     width="100%"
     y="0"
     style="stroke-linecap:butt;stroke-linejoin:round"
     id="use998"
     xlink:href="#DejaVuSans-32"
     x="381.95312"
     transform="matrix(0,-0.1,-0.1,0,31.795312,218.12956)" />
  <path
     inkscape:connector-curvature="0"
     id="path1020"
     style="fill:none;stroke:#000000;stroke-width:0.80000001;stroke-linecap:square;stroke-linejoin:miter"
     d="M 63.6,307.584 V 41.472" />
  <defs
     id="defs1037">
    <clipPath
       id="pb711ccdc9a">
      <rect
         height="266.112"
         width="357.12"
         x="57.6"
         y="41.472"
         id="rect1034" />
    </clipPath>
  </defs>
  <text
     xml:space="preserve"
     style="font-style:normal;font-weight:normal;font-size:30px;line-height:1.25;font-family:sans-serif;letter-spacing:0px;word-spacing:0px;fill:#000000;fill-opacity:1;stroke:none;stroke-width:0.75;stroke-linecap:butt;stroke-linejoin:round"
     x="-263.4538"
     y="28.234581"
     id="text6224"
     transform="rotate(-90)"><tspan
       sodipodi:role="line"
       id="tspan6222"
       style="stroke-width:0.75;stroke-linecap:butt;stroke-linejoin:round"
       x="-263.4538"
       y="28.234581">% Accuracy</tspan></text>
</svg>
